<svg xmlns="http://www.w3.org/2000/svg" viewBox="0 0 512 512"><defs><linearGradient id="a" x1="256" y1="512" x2="256" gradientUnits="userSpaceOnUse"><stop offset="0" stop-color="#0000dc"/><stop offset="0.999" stop-color="blue"/></linearGradient></defs><circle cx="256" cy="256" r="256" fill="url(#a)"/><path d="M114.618,194.94c0,10.412,7.124,18.084,24.934,30.688l19.18,13.7c12.878,9.042,23.016,19.728,23.016,36.442,0,32.881-30.414,63.568-64.938,63.568-24.934,0-46.032-16.166-50.417-44.935l31.784-18.085c5.755,33.7,19.455,45.759,33.7,45.759,13.426,0,21.92-10.138,21.92-24.935,0-9.315-4.658-16.439-18.358-26.03L109.96,253.576c-13.974-9.59-24.66-18.632-24.66-36.168,0-36.443,36.168-62.746,75.9-62.746a131.349,131.349,0,0,1,35.621,5.206l-16.441,53.978c-7.4-21.372-23.838-41.1-43.84-41.1C123.66,172.746,114.618,182.335,114.618,194.94Z" fill="#fff"/><path d="M329.979,197.131c0,44.937-36.168,73.981-82.2,73.981h-5.206l-3.015,18.358a135.587,135.587,0,0,0-1.918,23.838,120.68,120.68,0,0,0,1.918,21.921h-49.32c8.494-15.893,12.6-30.963,15.07-45.759l14.522-86.584a153.962,153.962,0,0,0,2.192-25.209,108.314,108.314,0,0,0-1.918-20.55h56.719C297.1,157.127,329.979,160.963,329.979,197.131Zm-36.716.823c0-21.647-10.96-30.14-29.045-30.14H260.93c-2.739,11.781-4.657,23.838-6.575,35.072L244.49,260.7h5.754C279.288,260.7,293.263,228.916,293.263,197.954Z" fill="#fff"/><path d="M387.243,335.229c4.659-6.028,7.4-20.824,7.4-33.7a64.129,64.129,0,0,0-.275-7.4l-1.918-16.44H348.884l-7.4,16.44c-4.384,9.317-7.4,22.195-7.4,31.785a21.819,21.819,0,0,0,1.645,9.316H300.385c10.96-10.412,19.181-24.387,28.223-42.471l67.13-137h16.44l20.824,137c2.466,16.714,5.481,31.237,12.605,42.471Zm4.385-66.856-7.4-67.679-30.962,67.679Z" fill="#fff"/></svg>